<svg width="77" height="77" viewBox="0 0 77 77" fill="none" xmlns="http://www.w3.org/2000/svg">
<g clip-path="url(#clip0)">
<path d="M74.8319 27.9581C74.3528 27.3194 73.7141 27 73.0753 27H53.7532C53.1145 27 52.4757 27.4791 52.316 28.1178C52.1564 28.7566 46.8867 45.0446 52.7951 53.3483C54.871 56.063 57.9051 57.6599 61.8972 57.9792V72.5107H58.8632C57.9051 72.5107 57.2663 73.1495 57.2663 74.1076C57.2663 75.0657 57.9051 75.7045 58.8632 75.7045H68.2847C69.2428 75.7045 69.8816 75.0657 69.8816 74.1076C69.8816 73.1495 69.2428 72.5107 68.2847 72.5107H65.2507V57.8196C69.2428 57.5002 72.2769 56.063 74.3528 53.1886C80.4209 44.8849 75.1513 28.7566 74.8319 27.9581ZM54.871 30.1937H71.7978C72.1172 31.4712 72.756 33.7068 73.235 36.4215H53.5935C53.9129 33.7068 54.5517 31.4712 54.871 30.1937ZM71.4785 51.2724C69.7219 53.508 67.1669 54.6258 63.3344 54.6258C59.6616 54.6258 56.947 53.6677 55.3501 51.2724C53.1145 48.2383 52.7951 43.7671 53.1145 39.4556H73.5544C73.8738 43.7671 73.5544 48.398 71.4785 51.2724Z" fill="white"/>
<path d="M34.9112 39.4791C34.7515 39.1597 34.2724 39 33.7933 39H11.5969C11.1178 39 10.6387 39.1597 10.4791 39.4791C10.1597 39.7984 10 40.2775 10 40.7566L12.2356 63.2724C12.3953 64.0708 13.0341 64.7096 13.8325 64.7096H31.5577C32.3562 64.7096 32.9949 64.0708 33.1546 63.2724L35.3902 40.7566C35.3902 40.2775 35.2305 39.7984 34.9112 39.4791ZM30.1205 61.5158H15.2697L13.3534 42.1937H32.0368L30.1205 61.5158Z" fill="white"/>
<path d="M30.3405 25.474V5.35342C30.3405 3.59687 28.9033 2 27.1468 2H18.6834C16.9268 2 15.4896 3.43718 15.4896 5.35342V25.474C6.0681 27.3902 0 32.5002 0 38.5683V38.728C0 39.207 0.159687 39.8458 0.159687 40.1652L4.31154 73.8591C4.47123 74.6575 5.10998 75.2963 5.90841 75.2963H39.6023C40.4008 75.2963 41.0395 74.6575 41.1992 73.8591L45.3511 40.3248C45.5107 39.6861 45.5107 39.207 45.5107 38.8877V38.728V38.5683C45.5107 32.5002 39.4426 27.3902 30.3405 25.474ZM18.5237 5.19374L27.1468 5.35342V10.6231H18.5237V5.19374ZM42.1573 39.8458L38.1652 72.2622H7.34559L3.35342 39.8458C3.35342 39.3667 3.19374 39.0473 3.19374 38.728C3.19374 38.728 3.19374 38.728 3.19374 38.5683C3.19374 33.9374 8.94246 29.7855 17.0865 28.3483C17.8849 28.1886 18.364 27.5499 18.364 26.7515V13.8168H27.1468V26.7515C27.1468 27.5499 27.7855 28.1886 28.4243 28.3483C36.5683 29.7855 42.317 33.9374 42.317 38.5683C42.317 39.0473 42.317 39.3667 42.1573 39.8458Z" fill="white"/>
</g>
<defs>
<clipPath id="clip0">
<rect width="77" height="77" fill="white"/>
</clipPath>
</defs>
</svg>
