<svg width="77" height="77" viewBox="0 0 77 77" fill="none" xmlns="http://www.w3.org/2000/svg">
<g clip-path="url(#clip0)">
<path d="M73.7953 0H71.3867C69.5192 0 68 1.51977 68 3.38731V77H70.2576V14.3012H74.9244V21.1293H77.1826V3.38731C77.1826 1.51977 75.6635 0 73.7953 0ZM70.2576 12.043V3.38731C70.2576 2.7646 70.764 2.25821 71.3867 2.25821H73.7953C74.418 2.25821 74.9244 2.7646 74.9244 3.38731V12.043H70.2576Z" fill="white"/>
<path d="M75 28H77.2582V77.0967H75V28Z" fill="#FAFBF1"/>
<path d="M75 23H77.2582V25.2582H75V23Z" fill="#FAFBF1"/>
<path d="M41.312 21.6557C41.312 16.8831 37.4288 13 32.6557 13C27.8831 13 24 16.8831 24 21.6557C24 26.4288 27.8831 30.312 32.6557 30.312C37.4288 30.312 41.312 26.4288 41.312 21.6557ZM32.6557 28.0537C29.128 28.0537 26.2582 25.184 26.2582 21.6557C26.2582 18.128 29.128 15.2582 32.6557 15.2582C36.184 15.2582 39.0537 18.128 39.0537 21.6557C39.0537 25.184 36.184 28.0537 32.6557 28.0537Z" fill="#FAFBF1"/>
<path d="M42.6563 30C37.8831 30 34 33.8825 34 38.6557C34 43.4288 37.8831 47.3114 42.6563 47.3114C47.4288 47.3114 51.312 43.4288 51.312 38.6557C51.312 33.8825 47.4288 30 42.6563 30ZM42.6563 45.0537C39.128 45.0537 36.2582 42.1834 36.2582 38.6557C36.2582 35.128 39.128 32.2576 42.6563 32.2576C46.184 32.2576 49.0537 35.128 49.0537 38.6557C49.0537 42.1834 46.184 45.0537 42.6563 45.0537Z" fill="white"/>
<path d="M31.312 38.6557C31.312 33.8825 27.4288 30 22.6557 30C17.8825 30 14 33.8825 14 38.6557C14 43.4288 17.8825 47.3114 22.6557 47.3114C27.4288 47.3114 31.312 43.4288 31.312 38.6557ZM22.6557 45.0537C19.128 45.0537 16.2582 42.1834 16.2582 38.6557C16.2582 35.128 19.128 32.2576 22.6557 32.2576C26.1834 32.2576 29.0537 35.128 29.0537 38.6557C29.0537 42.1834 26.1834 45.0537 22.6557 45.0537Z" fill="white"/>
<path d="M24 54.6557C24 59.4288 27.8831 63.312 32.6557 63.312C37.4288 63.312 41.312 59.4288 41.312 54.6557C41.312 49.8831 37.4288 46 32.6557 46C27.8831 46 24 49.8831 24 54.6557ZM32.6557 48.2582C36.184 48.2582 39.0537 51.128 39.0537 54.6557C39.0537 58.184 36.184 61.0538 32.6557 61.0538C29.128 61.0538 26.2582 58.184 26.2582 54.6557C26.2582 51.128 29.128 48.2582 32.6557 48.2582Z" fill="white"/>
<path d="M13.6557 46C8.88255 46 5 49.8831 5 54.6557C5 59.4288 8.88255 63.312 13.6557 63.312C18.4288 63.312 22.3114 59.4288 22.3114 54.6557C22.3114 49.8831 18.4288 46 13.6557 46ZM13.6557 61.0538C10.128 61.0538 7.25762 58.184 7.25762 54.6557C7.25762 51.128 10.128 48.2582 13.6557 48.2582C17.1834 48.2582 20.0537 51.128 20.0537 54.6557C20.0537 58.184 17.1834 61.0538 13.6557 61.0538Z" fill="white"/>
<path d="M63.9891 49.364L63.9673 49.3164L50.6178 26L48.6581 27.1221L61.9553 50.3462C62.585 51.7473 62.9052 53.243 62.9058 54.7933V54.8133C62.8982 60.7238 57.826 65.7137 51.8233 65.7137H23V67.9713H51.8233C55.3357 67.9713 58.6673 66.6008 61.2045 64.1111C63.7576 61.6062 65.164 58.2987 65.164 54.7992V54.7734C65.1605 52.8882 64.7651 51.0682 63.9891 49.364Z" fill="white"/>
<path d="M47 23.1221L48.9592 22L50.0812 23.9598L48.1221 25.0818L47 23.1221Z" fill="#FAFBF1"/>
<path d="M2.25821 55.2839C2.2588 53.7342 2.57896 52.2379 3.20872 50.8368L22.4552 17.2215C24.5613 13.5429 28.5031 11.2576 32.7417 11.2576C36.9808 11.2576 40.9227 13.5429 43.0288 17.2215L45.6124 21.7339L47.5722 20.6118L44.9885 16.1001C42.4812 11.72 37.7886 9 32.7417 9C27.6954 9 23.0027 11.72 20.4954 16.1001L1.22251 49.7611L1.17493 49.8546C0.396538 51.5647 0.00117493 53.3911 0 55.2898C0 58.7893 1.4058 62.0967 3.9595 64.6016C6.49617 67.0913 9.82826 68.4619 13.3401 68.4619H16.5459V66.2042H13.3401C7.33331 66.2042 2.25821 61.2061 2.25821 55.2839Z" fill="white"/>
<path d="M19 66H21.2582V68.2576H19V66Z" fill="white"/>
<path d="M44 54.6557C44 59.4288 47.8825 63.312 52.6557 63.312C57.4288 63.312 61.3114 59.4288 61.3114 54.6557C61.3114 49.8831 57.4288 46 52.6557 46C47.8825 46 44 49.8831 44 54.6557ZM52.6557 48.2582C56.1834 48.2582 59.0537 51.128 59.0537 54.6557C59.0537 58.184 56.1834 61.0538 52.6557 61.0538C49.128 61.0538 46.2576 58.184 46.2576 54.6557C46.2576 51.128 49.128 48.2582 52.6557 48.2582Z" fill="white"/>
<path d="M37.1399 22.1393H34.8822C34.8822 21.1018 34.038 20.2576 33 20.2576V18C35.2829 18 37.1399 19.857 37.1399 22.1393Z" fill="#FAFBF1"/>
<path d="M17.1399 55.1393H14.8816C14.8816 54.1018 14.0375 53.2576 13 53.2576V51C15.2829 51 17.1399 52.857 17.1399 55.1393Z" fill="white"/>
<path d="M56.1399 55.1393H53.8816C53.8816 54.1018 53.0375 53.2576 52 53.2576V51C54.2829 51 56.1399 52.857 56.1399 55.1393Z" fill="white"/>
</g>
<defs>
<clipPath id="clip0">
<rect width="77" height="77" fill="white"/>
</clipPath>
</defs>
</svg>
