<svg width="80" height="80" viewBox="0 0 80 80" fill="none" xmlns="http://www.w3.org/2000/svg">
<path d="M76.25 37.5H75V35C75 30.8325 72.8788 26.9538 69.475 24.6513C71.3375 22.835 72.5 20.3012 72.5 17.5C72.5 11.9863 68.0137 7.5 62.5 7.5C56.9863 7.5 52.5 11.9863 52.5 17.5C52.5 20.3012 53.6625 22.835 55.525 24.6513C54.245 25.5175 53.1637 26.615 52.2925 27.86C51.705 24.5325 49.7863 21.5525 46.9763 19.6512C48.8375 17.835 50 15.3012 50 12.5C50 6.98625 45.5137 2.5 40 2.5C34.4863 2.5 30 6.98625 30 12.5C30 15.3012 31.1625 17.835 33.025 19.6512C30.215 21.5525 28.2962 24.5312 27.7087 27.86C26.8375 26.6163 25.755 25.5175 24.4762 24.6513C26.3375 22.835 27.5 20.3012 27.5 17.5C27.5 11.9863 23.0137 7.5 17.5 7.5C11.9863 7.5 7.5 11.9863 7.5 17.5C7.5 20.3012 8.6625 22.835 10.525 24.6513C7.12125 26.9538 5 30.8325 5 35V37.5H3.75C3.06 37.5 2.5 38.0588 2.5 38.75V76.25C2.5 76.9412 3.06 77.5 3.75 77.5H76.25C76.94 77.5 77.5 76.9412 77.5 76.25V38.75C77.5 38.0588 76.94 37.5 76.25 37.5ZM55 17.5C55 13.3637 58.3637 10 62.5 10C66.6363 10 70 13.3637 70 17.5C70 21.6363 66.6363 25 62.5 25C58.3637 25 55 21.6363 55 17.5ZM57.7 26.2687C59.1262 27.0525 60.7612 27.5 62.5 27.5C64.2388 27.5 65.8738 27.0525 67.3 26.2687C70.47 28.0175 72.5 31.365 72.5 35V37.5H52.5V35C52.5 31.365 54.53 28.0175 57.7 26.2687ZM32.5 12.5C32.5 8.36375 35.8637 5 40 5C44.1363 5 47.5 8.36375 47.5 12.5C47.5 16.6363 44.1363 20 40 20C35.8637 20 32.5 16.6363 32.5 12.5V12.5ZM42.2888 22.225L40 26.23L37.7113 22.225C38.4475 22.3988 39.2113 22.5 40 22.5C40.7887 22.5 41.5525 22.3988 42.2888 22.225ZM30 30C30 26.6313 31.7313 23.4913 34.5075 21.6575L38.915 29.37C39.1375 29.76 39.5513 30 40 30C40.4487 30 40.8625 29.76 41.085 29.37L45.4925 21.6575C48.2688 23.4913 50 26.6313 50 30V37.5H30V30ZM10 17.5C10 13.3637 13.3637 10 17.5 10C21.6363 10 25 13.3637 25 17.5C25 21.6363 21.6363 25 17.5 25C13.3637 25 10 21.6363 10 17.5ZM7.5 35C7.5 31.365 9.53 28.0175 12.7 26.2687C14.1262 27.0525 15.7612 27.5 17.5 27.5C19.2388 27.5 20.8738 27.0525 22.3 26.2687C25.47 28.0175 27.5 31.365 27.5 35V37.5H7.5V35ZM75 75H5V40H75V75Z" fill="white"/>
<path d="M41.25 62.5H38.75C38.0613 62.5 37.5 61.94 37.5 61.25H35C35 63.3175 36.6825 65 38.75 65V66.25H41.25V65C43.3175 65 45 63.3175 45 61.25V60C45 57.9325 43.3175 56.25 41.25 56.25H38.75C38.0613 56.25 37.5 55.69 37.5 55V53.75C37.5 53.06 38.0613 52.5 38.75 52.5H41.25C41.9387 52.5 42.5 53.06 42.5 53.75H45C45 51.6825 43.3175 50 41.25 50V48.75H38.75V50C36.6825 50 35 51.6825 35 53.75V55C35 57.0675 36.6825 58.75 38.75 58.75H41.25C41.9387 58.75 42.5 59.31 42.5 60V61.25C42.5 61.94 41.9387 62.5 41.25 62.5Z" fill="white"/>
<path d="M70 42.5H72.5V45H70V42.5Z" fill="white"/>
<path d="M70 70H72.5V72.5H70V70Z" fill="white"/>
<path d="M7.5 42.5H10V45H7.5V42.5Z" fill="white"/>
<path d="M7.5 70H10V72.5H7.5V70Z" fill="white"/>
<path d="M8.75 66.25C11.5075 66.25 13.75 68.4925 13.75 71.25C13.75 71.9412 14.31 72.5 15 72.5H32.5C32.8312 72.5 33.15 72.3688 33.3838 72.1338L34.2675 71.25H45.7325L46.6162 72.1338C46.85 72.3688 47.1688 72.5 47.5 72.5H65C65.69 72.5 66.25 71.9412 66.25 71.25C66.25 68.4925 68.4925 66.25 71.25 66.25C71.94 66.25 72.5 65.6912 72.5 65V50C72.5 49.3088 71.94 48.75 71.25 48.75C68.4925 48.75 66.25 46.5075 66.25 43.75C66.25 43.0588 65.69 42.5 65 42.5H15C14.31 42.5 13.75 43.0588 13.75 43.75C13.75 46.5075 11.5075 48.75 8.75 48.75C8.06 48.75 7.5 49.3088 7.5 50V65C7.5 65.6912 8.06 66.25 8.75 66.25ZM10 51.1462C13.1363 50.6175 15.6175 48.1363 16.1462 45H63.855C64.3825 48.1363 66.865 50.6175 70.0012 51.1462V63.8538C66.865 64.3825 64.3837 66.8637 63.855 70H48.0175L47.1338 69.1162C46.9 68.8812 46.5812 68.75 46.25 68.75H33.75C33.4188 68.75 33.1 68.8812 32.8662 69.1162L31.9825 70H16.1462C15.6187 66.8637 13.1363 64.3825 10 63.8538V51.1462Z" fill="white"/>
<path d="M57.5 56.25H62.5V58.75H57.5V56.25Z" fill="white"/>
<path d="M17.5 56.25H22.5V58.75H17.5V56.25Z" fill="white"/>
<path d="M16.25 30H18.75V32.5H16.25V30Z" fill="white"/>
<path d="M61.25 30H63.75V32.5H61.25V30Z" fill="white"/>
</svg>
