<svg width="20" height="20" viewBox="0 0 20 20" fill="none" xmlns="http://www.w3.org/2000/svg">
<path d="M9.75 1C4.91797 1 1 4.91797 1 9.75C1 14.582 4.91797 18.5 9.75 18.5C14.582 18.5 18.5 14.582 18.5 9.75C18.5 4.91797 14.582 1 9.75 1ZM9.75 17.0156C5.73828 17.0156 2.48438 13.7617 2.48438 9.75C2.48438 5.73828 5.73828 2.48438 9.75 2.48438C13.7617 2.48438 17.0156 5.73828 17.0156 9.75C17.0156 13.7617 13.7617 17.0156 9.75 17.0156Z" fill="#478ECC"/>
<path d="M13.0371 12.0039L10.252 9.99023V5.15625C10.252 5.07031 10.1816 5 10.0957 5H9.15625C9.07031 5 9 5.07031 9 5.15625V10.5352C9 10.5859 9.02344 10.6328 9.06445 10.6621L12.2949 13.0176C12.3652 13.0684 12.4629 13.0527 12.5137 12.9844L13.0723 12.2227C13.123 12.1504 13.1074 12.0527 13.0371 12.0039Z" fill="#478ECC"/>
</svg>
