<svg width="20" height="20" viewBox="0 0 20 20" fill="none" xmlns="http://www.w3.org/2000/svg">
<path d="M8.92859 9.99988C8.92859 10.284 9.04147 10.5566 9.2424 10.7575C9.44333 10.9584 9.71585 11.0713 10 11.0713C10.2842 11.0713 10.5567 10.9584 10.7576 10.7575C10.9585 10.5566 11.0714 10.284 11.0714 9.99988C11.0714 9.71572 10.9585 9.4432 10.7576 9.24227C10.5567 9.04134 10.2842 8.92846 10 8.92846C9.71585 8.92846 9.44333 9.04134 9.2424 9.24227C9.04147 9.4432 8.92859 9.71572 8.92859 9.99988ZM13.3928 9.99988C13.3928 10.284 13.5057 10.5566 13.7066 10.7575C13.9076 10.9584 14.1801 11.0713 14.4642 11.0713C14.7484 11.0713 15.0209 10.9584 15.2218 10.7575C15.4228 10.5566 15.5356 10.284 15.5356 9.99988C15.5356 9.71572 15.4228 9.4432 15.2218 9.24227C15.0209 9.04134 14.7484 8.92846 14.4642 8.92846C14.1801 8.92846 13.9076 9.04134 13.7066 9.24227C13.5057 9.4432 13.3928 9.71572 13.3928 9.99988ZM4.46436 9.99988C4.46436 10.284 4.57724 10.5566 4.77817 10.7575C4.9791 10.9584 5.25162 11.0713 5.53577 11.0713C5.81993 11.0713 6.09245 10.9584 6.29338 10.7575C6.49431 10.5566 6.60719 10.284 6.60719 9.99988C6.60719 9.71572 6.49431 9.4432 6.29338 9.24227C6.09245 9.04134 5.81993 8.92846 5.53577 8.92846C5.25162 8.92846 4.9791 9.04134 4.77817 9.24227C4.57724 9.4432 4.46436 9.71572 4.46436 9.99988ZM19.2231 6.12492C18.7186 4.92628 17.9954 3.8504 17.0736 2.9263C16.1582 2.00756 15.0714 1.27726 13.875 0.776776C12.6473 0.261158 11.3437 0 10 0H9.95536C8.6027 0.00669635 7.29245 0.27455 6.06032 0.801329C4.87408 1.30695 3.79754 2.03854 2.89072 2.95532C1.97778 3.87718 1.26127 4.9486 0.765742 6.14278C0.252356 7.37937 -0.00656971 8.69409 0.000126634 10.0467C0.00770076 11.5969 0.374434 13.1242 1.07154 14.5087V17.9016C1.07154 18.1739 1.17972 18.435 1.37228 18.6276C1.56483 18.8202 1.826 18.9283 2.09831 18.9283H5.49336C6.87793 19.6254 8.40522 19.9922 9.95536 19.9998H10.0022C11.3393 19.9998 12.6361 19.7408 13.8571 19.2341C15.0475 18.7396 16.1302 18.0178 17.0446 17.1092C17.9664 16.1962 18.6919 15.1293 19.1985 13.9396C19.7253 12.7074 19.9932 11.3972 19.9999 10.0445C20.0066 8.68516 19.7432 7.36598 19.2231 6.12492ZM15.8504 15.9016C14.2857 17.4507 12.2098 18.3033 10 18.3033H9.96206C8.61609 18.2966 7.27905 17.9618 6.09827 17.3324L5.91077 17.2319H2.76795V14.0891L2.6675 13.9016C2.03805 12.7208 1.70323 11.3838 1.69653 10.0378C1.68761 7.8124 2.53804 5.72314 4.09829 4.1495C5.65631 2.57586 7.73887 1.70534 9.96429 1.69641H10.0022C11.1183 1.69641 12.2009 1.91292 13.2209 2.34149C14.2165 2.75889 15.1093 3.35933 15.8772 4.12718C16.6428 4.8928 17.2454 5.78787 17.6629 6.7834C18.0959 7.81463 18.3124 8.90837 18.3079 10.0378C18.2945 12.261 17.4218 14.3436 15.8504 15.9016Z" fill="#478ECC"/>
</svg>
