<svg xmlns="http://www.w3.org/2000/svg" width="20" height="20" viewBox="0 0 20 20"><defs><clipPath id="1f12a"><path fill="#fff" d="M20 10c0 5.523-4.477 10-10 10S0 15.523 0 10 4.477 0 10 0s10 4.477 10 10z"/></clipPath></defs><g><g><g><path fill="#478ecc" d="M10.785 11.129H9.238L8.77 13.53h-.838L8.4 11.13H7v-.803h1.553l.404-2.074H7.445v-.815h1.67L9.595 5h.839l-.48 2.437H11.5L11.98 5h.844l-.48 2.437h1.195v.815h-1.353l-.405 2.074H13.1v.803h-1.471l-.469 2.402h-.844zm-1.394-.803h1.547l.404-2.074H9.795z"/></g><g><path fill="none" stroke="#478ecc" stroke-miterlimit="50" stroke-width="2" d="M20 10c0 5.523-4.477 10-10 10S0 15.523 0 10 4.477 0 10 0s10 4.477 10 10z" clip-path="url(&quot;#1f12a&quot;)"/></g></g></g></svg>