<svg width="26" height="25" viewBox="0 0 26 25" fill="none" xmlns="http://www.w3.org/2000/svg">
<path d="M7.47495 2.1L5.68744 0.3125C2.68744 2.6 0.712445 6.125 0.537445 10.125H3.03745C3.12599 8.53976 3.57098 6.99492 4.33928 5.60548C5.10758 4.21605 6.1794 3.01782 7.47495 2.1ZM22.9624 10.125H25.4624C25.2749 6.125 23.2999 2.6 20.3124 0.3125L18.5374 2.1C19.8274 3.02233 20.8945 4.22189 21.6602 5.61058C22.4259 6.99927 22.8709 8.54183 22.9624 10.125ZM20.4999 10.75C20.4999 6.9125 18.4499 3.7 14.8749 2.85V2C14.8749 0.9625 14.0374 0.125 12.9999 0.125C11.9624 0.125 11.1249 0.9625 11.1249 2V2.85C7.53745 3.7 5.49995 6.9 5.49995 10.75V17L2.99995 19.5V20.75H22.9999V19.5L20.4999 17V10.75ZM12.9999 24.5C13.1749 24.5 13.3374 24.4875 13.4999 24.45C14.3124 24.275 14.9749 23.725 15.2999 22.975C15.4249 22.675 15.4874 22.35 15.4874 22H10.4874C10.4999 23.375 11.6124 24.5 12.9999 24.5Z" fill="white"/>
</svg>
