<svg width="23" height="26" viewBox="0 0 23 26" fill="none" xmlns="http://www.w3.org/2000/svg">
<path d="M11.375 13C14.9652 13 17.875 10.0902 17.875 6.5C17.875 2.90977 14.9652 0 11.375 0C7.78477 0 4.875 2.90977 4.875 6.5C4.875 10.0902 7.78477 13 11.375 13ZM16.2398 14.6555L13.8125 24.375L12.1875 17.4688L13.8125 14.625H8.9375L10.5625 17.4688L8.9375 24.375L6.51016 14.6555C2.88945 14.8281 0 17.7887 0 21.45V23.5625C0 24.9082 1.0918 26 2.4375 26H20.3125C21.6582 26 22.75 24.9082 22.75 23.5625V21.45C22.75 17.7887 19.8605 14.8281 16.2398 14.6555Z" fill="white"/>
</svg>
