<svg width="20" height="26" viewBox="0 0 20 26" fill="none" xmlns="http://www.w3.org/2000/svg">
<path d="M17.485 25.5C18.148 25.5 18.7839 25.2366 19.2528 24.7678C19.7216 24.2989 19.985 23.663 19.985 23V3C19.985 2.33696 19.7216 1.70107 19.2528 1.23223C18.7839 0.763392 18.148 0.5 17.485 0.5H2.5C1.83696 0.5 1.20107 0.763392 0.732233 1.23223C0.263392 1.70107 0 2.33696 0 3V23C0 23.663 0.263392 24.2989 0.732233 24.7678C1.20107 25.2366 1.83696 25.5 2.5 25.5H17.485ZM6.25 4.25H13.75V6.75H6.25V4.25ZM12.8125 12.0625C12.8095 12.8076 12.5123 13.5214 11.9855 14.0484C11.4588 14.5754 10.7451 14.873 10 14.8763C8.45625 14.8763 7.1875 13.6075 7.1875 12.0625C7.1875 10.5175 8.45625 9.25 10 9.25C10.745 9.25296 11.4587 9.55023 11.9855 10.077C12.5123 10.6038 12.8095 11.3175 12.8125 12.0625ZM4.375 20.735C4.375 18.655 6.91 16.5163 10 16.5163C13.09 16.5163 15.625 18.655 15.625 20.735V21.4387H4.375V20.735Z" fill="white"/>
</svg>
