<svg width="26" height="26" viewBox="0 0 26 26" fill="none" xmlns="http://www.w3.org/2000/svg">
<circle cx="13" cy="13" r="11.7" stroke="white" stroke-width="2.6"/>
<path d="M16.6543 10.6294C16.6543 11.1207 16.5142 11.5563 16.2342 11.9364C15.9541 12.3164 15.5683 12.62 15.0768 12.8471C15.637 13.0834 16.0809 13.4102 16.4085 13.8273C16.7362 14.2398 16.9 14.7264 16.9 15.2872C16.9 16.1863 16.5512 16.8977 15.8537 17.4214C15.1561 17.9405 14.2075 18.2 13.0079 18.2C11.8083 18.2 10.8571 17.9381 10.1543 17.4144C9.45143 16.8907 9.10001 16.1816 9.10001 15.2872C9.10001 14.7264 9.26383 14.2374 9.59147 13.8203C9.91911 13.4032 10.3604 13.0788 10.9153 12.8471C10.4238 12.62 10.038 12.3164 9.75793 11.9364C9.48314 11.5563 9.34574 11.1207 9.34574 10.6294C9.34574 9.76738 9.67338 9.08146 10.3287 8.57166C10.9839 8.05722 11.8744 7.8 13 7.8C14.1203 7.8 15.0081 8.05491 15.6634 8.56471C16.324 9.06988 16.6543 9.75811 16.6543 10.6294ZM14.6012 15.1412C14.6012 14.7009 14.4559 14.3487 14.1652 14.0845C13.8746 13.8203 13.4835 13.6882 12.9921 13.6882C12.5059 13.6882 12.1175 13.8203 11.8268 14.0845C11.5362 14.344 11.3909 14.6963 11.3909 15.1412C11.3909 15.5722 11.5335 15.9198 11.8189 16.184C12.1043 16.4481 12.5006 16.5802 13.0079 16.5802C13.5047 16.5802 13.8931 16.4528 14.1732 16.1979C14.4585 15.943 14.6012 15.5907 14.6012 15.1412ZM14.3634 10.7267C14.3634 10.3328 14.2445 10.0176 14.0067 9.78129C13.7689 9.54029 13.4333 9.41979 13 9.41979C12.572 9.41979 12.239 9.53565 12.0012 9.76738C11.7634 9.99911 11.6445 10.3189 11.6445 10.7267C11.6445 11.1299 11.7634 11.4544 12.0012 11.7C12.239 11.9456 12.5746 12.0685 13.0079 12.0685C13.4413 12.0685 13.7742 11.9456 14.0067 11.7C14.2445 11.4544 14.3634 11.1299 14.3634 10.7267Z" fill="white"/>
</svg>
