<svg width="30" height="30" viewBox="0 0 30 30" fill="none" xmlns="http://www.w3.org/2000/svg">
<path d="M27.3258 11.0236C27.8768 10.4781 28.314 9.82866 28.6121 9.11293C28.9102 8.39719 29.0633 7.6294 29.0625 6.85406C29.0625 3.60422 26.4239 0.970313 23.1708 0.969844H23.1684C21.5372 0.969844 20.0592 1.63266 18.9928 2.70328L22.4695 6.17438L21.6863 6.96609C19.7292 5.62164 17.41 4.90337 15.0356 4.90641C12.6613 4.9032 10.3421 5.62131 8.385 6.96563L7.54547 6.11672L10.942 2.68172C10.4014 2.1293 9.75588 1.69045 9.04334 1.39093C8.33079 1.09141 7.56559 0.937247 6.79266 0.9375C3.55875 0.9375 0.9375 3.58828 0.9375 6.85828C0.9375 8.49891 1.59656 9.98344 2.66297 11.0555L6.09516 7.58438L6.78656 8.28328C5.6577 9.38806 4.76126 10.7075 4.15001 12.1639C3.53875 13.6204 3.22504 15.1844 3.22734 16.7639C3.22734 19.1175 3.91313 21.3094 5.09063 23.1544L4.10203 29.0625H4.97672C5.52328 29.0625 5.72531 28.4208 6.08063 27.6225C6.39654 26.906 6.70936 26.1882 7.01906 25.4691C9.12422 27.4266 11.94 28.6233 15.0356 28.6233C18.1308 28.6233 20.9461 27.4256 23.0522 25.4691C23.3618 26.1883 23.6748 26.9061 23.9911 27.6225C24.3469 28.4208 24.548 29.0625 25.0945 29.0625H25.9692L24.982 23.153C26.2008 21.2453 26.8471 19.0282 26.8444 16.7644C26.8467 15.1849 26.533 13.621 25.9217 12.1646C25.3105 10.7082 24.414 9.38889 23.2852 8.28422L23.9302 7.63266L27.3258 11.0236ZM24.2203 16.7644C24.2203 21.8583 20.108 25.9884 15.0356 25.9884C9.96328 25.9884 5.85141 21.8583 5.85141 16.7644C5.85141 11.6714 9.96281 7.54172 15.0356 7.54172C20.1075 7.54172 24.2203 11.6709 24.2203 16.7644Z" fill="white"/>
<path d="M15.9099 15.2522V10.177H14.161V15.2522C13.8955 15.4057 13.675 15.6262 13.5215 15.8916C13.368 16.1571 13.2869 16.4582 13.2863 16.7648C13.2863 17.1544 13.4161 17.5116 13.6294 17.8027L9.65251 21.8236L10.1963 22.3748L14.2167 18.3094C14.4614 18.4406 14.738 18.5222 15.0356 18.5222C15.6816 18.5222 16.2389 18.1669 16.5427 17.6438H19.4091V15.8873H16.5427C16.3906 15.6241 16.1725 15.4052 15.9099 15.2522Z" fill="white"/>
</svg>
