<svg width="26" height="20" viewBox="0 0 26 20" fill="none" xmlns="http://www.w3.org/2000/svg">
<path d="M25.5 6.25H0.5V3.75C0.5 2.75544 0.895088 1.80161 1.59835 1.09835C2.30161 0.395088 3.25544 0 4.25 0H21.75C22.7446 0 23.6984 0.395088 24.4017 1.09835C25.1049 1.80161 25.5 2.75544 25.5 3.75V6.25ZM25.5 8.75V16.25C25.5 17.2446 25.1049 18.1984 24.4017 18.9017C23.6984 19.6049 22.7446 20 21.75 20H4.25C3.25544 20 2.30161 19.6049 1.59835 18.9017C0.895088 18.1984 0.5 17.2446 0.5 16.25V8.75H8.1575C8.43555 9.8228 9.06196 10.7729 9.93842 11.4512C10.8149 12.1294 11.8918 12.4974 13 12.4974C14.1082 12.4974 15.1851 12.1294 16.0616 11.4512C16.938 10.7729 17.5645 9.8228 17.8425 8.75H25.5Z" fill="white"/>
</svg>
