<svg width="30" height="30" viewBox="0 0 30 30" fill="none" xmlns="http://www.w3.org/2000/svg">
<path d="M17.4838 14.5312C17.53 14.5313 17.5751 14.5177 17.6136 14.4921C17.6521 14.4666 17.6821 14.4303 17.7 14.3877C17.7179 14.3452 17.7229 14.2983 17.7142 14.2529C17.7055 14.2076 17.6837 14.1658 17.6514 14.1328L13.0576 9.46171C13.025 9.42856 12.9832 9.40587 12.9376 9.39654C12.892 9.38722 12.8447 9.39166 12.8017 9.40932C12.7586 9.42698 12.7218 9.45705 12.6959 9.4957C12.67 9.53435 12.6562 9.57983 12.6563 9.62635V13.8281C12.6563 14.0146 12.7303 14.1934 12.8622 14.3253C12.9941 14.4572 13.1729 14.5312 13.3594 14.5312H17.4838Z" fill="white"/>
<path d="M11.543 15.6445C11.3023 15.4071 11.1111 15.1243 10.9803 14.8126C10.8496 14.5008 10.7819 14.1662 10.7812 13.8281V8.4375H6.5625C5.56884 8.44044 4.61672 8.83647 3.91409 9.53909C3.21147 10.2417 2.81544 11.1938 2.8125 12.1875V25.3125C2.8125 26.3071 3.20759 27.2609 3.91085 27.9641C4.61411 28.6674 5.56794 29.0625 6.5625 29.0625H15C15.9946 29.0625 16.9484 28.6674 17.6516 27.9641C18.3549 27.2609 18.75 26.3071 18.75 25.3125V16.4062H13.3594C13.0213 16.4058 12.6866 16.3382 12.3748 16.2074C12.063 16.0767 11.7803 15.8854 11.543 15.6445Z" fill="white"/>
<path d="M21.7969 7.03124H25.9213C25.9675 7.03128 26.0126 7.01768 26.0511 6.99215C26.0896 6.96661 26.1196 6.93029 26.1375 6.88773C26.1554 6.84517 26.1604 6.79827 26.1517 6.75291C26.143 6.70756 26.1212 6.66577 26.0889 6.6328L21.4951 1.96171C21.4625 1.92856 21.4207 1.90587 21.3751 1.89654C21.3295 1.88722 21.2822 1.89166 21.2392 1.90932C21.1961 1.92698 21.1593 1.95705 21.1334 1.9957C21.1075 2.03435 21.0937 2.07983 21.0938 2.12635V6.32811C21.0938 6.51459 21.1678 6.69343 21.2997 6.8253C21.4316 6.95716 21.6104 7.03124 21.7969 7.03124Z" fill="white"/>
<path d="M21.7969 8.90625C21.1147 8.90104 20.462 8.62774 19.9796 8.14538C19.4973 7.66301 19.224 7.01028 19.2187 6.32812V0.9375H12.8906C11.9586 0.938586 11.065 1.30933 10.4059 1.9684C9.74683 2.62747 9.37609 3.52106 9.375 4.45312V6.5625H11.843C12.158 6.56376 12.4696 6.62725 12.76 6.74932C13.0504 6.87139 13.3139 7.04964 13.5352 7.27383L19.9312 13.7777C20.3775 14.2305 20.6266 14.8413 20.6244 15.477V23.4375H23.7328C25.6377 23.4375 27.1869 21.8602 27.1869 19.9219V8.90625H21.7969Z" fill="white"/>
</svg>
