<svg width="24" height="24" viewBox="0 0 24 24" fill="none" xmlns="http://www.w3.org/2000/svg">
<path d="M11.9999 0C5.37237 0 -0.000137329 5.37251 -0.000137329 12C-0.000137329 18.6275 5.37237 24 11.9999 24C18.6274 24 23.9999 18.6275 23.9999 12C23.9999 5.37251 18.6274 0 11.9999 0ZM18.9238 11.1479C18.3554 11.8016 17.6077 12.2741 16.7733 12.5069C15.939 12.7397 15.0546 12.7225 14.2299 12.4574L8.296 19.2822C7.99081 19.6263 7.56209 19.836 7.1031 19.8656C6.64411 19.8953 6.192 19.7424 5.84512 19.4404C5.49824 19.1384 5.28467 18.7116 5.25088 18.2529C5.21708 17.7942 5.36579 17.3407 5.66465 16.9911L11.6077 10.1596C11.2445 9.40259 11.1047 8.5577 11.2046 7.72403C11.3046 6.89036 11.6402 6.10247 12.172 5.45275C12.7039 4.80303 13.41 4.31843 14.2075 4.05576C15.005 3.79309 15.8608 3.76324 16.6747 3.96973L14.4 6.62171L15.1431 8.78492L17.3914 9.22251L19.6702 6.56392C19.9851 7.32171 20.0822 8.15237 19.9507 8.96239C19.8191 9.7724 19.464 10.5296 18.9254 11.1488L18.9238 11.1479Z" fill="white"/>
</svg>
