<svg width="26" height="19" viewBox="0 0 26 19" fill="none" xmlns="http://www.w3.org/2000/svg">
<path d="M7.80183 14.2988H15.6012C17.7541 14.2988 19.5008 12.552 19.5008 10.3991H20.8007C23.6686 10.3991 26.0002 8.06742 26.0002 5.19955C26.0002 2.33167 23.6686 0 20.8007 0H4.87709C4.33682 0 3.90217 0.43465 3.90217 0.974915V10.3991C3.90217 12.552 5.6489 14.2988 7.80183 14.2988ZM20.8007 2.59977C22.2346 2.59977 23.4005 3.76561 23.4005 5.19955C23.4005 6.63348 22.2346 7.79932 20.8007 7.79932H19.5008V2.59977H20.8007ZM22.7383 18.1984H1.96453C0.0309506 18.1984 -0.513377 15.5986 0.502159 15.5986H24.1967C25.2122 15.5986 24.676 18.1984 22.7383 18.1984Z" fill="white"/>
</svg>
