<?xml version="1.0" encoding="utf-8"?><svg xmlns="http://www.w3.org/2000/svg" xmlns:xlink="http://www.w3.org/1999/xlink"><symbol viewBox="0 0 26 26" id="ball" xmlns="http://www.w3.org/2000/svg"><path d="M19.25 18.26H6.75v-1.25L8 15.76v-3.262c0-1.363.338-2.563.988-3.575.637-1.013 1.562-1.65 2.762-1.913v-.625a1.25 1.25 0 012.5 0v.625c1.2.263 2.125.9 2.763 1.913.65 1.012.987 2.212.987 3.575v3.262l1.25 1.25zm-4.375 1.25a1.875 1.875 0 11-3.75 0zM13 .76a12.5 12.5 0 110 24.999A12.5 12.5 0 0113 .76zm0 2.5a10 10 0 100 20 10 10 0 000-20z"/></symbol><symbol viewBox="0 0 16 18" id="calendar" xmlns="http://www.w3.org/2000/svg"><path d="M13.833 2.177c.917 0 1.667.75 1.667 1.666V15.51c0 .917-.75 1.667-1.667 1.667H2.167A1.667 1.667 0 01.5 15.51V3.843a1.667 1.667 0 011.667-1.666H3V.51h1.667v1.667h6.666V.51H13v1.667zm0 5H2.167v8.333h11.666zm0-3.334H2.167V5.51h11.666zm-10 5H8v4.167H3.833z"/></symbol><symbol viewBox="0 0 344.96 344.96" id="check" xmlns="http://www.w3.org/2000/svg"><g data-name="Слой 2"><path d="M321.85 86.24l-40-23.11-23.1-40H212.5L172.48 0l-40 23.11H86.24l-23.11 40-40 23.1v46.21L0 172.48l23.11 40v46.21l40 23.11 23.11 40h46.21l40 23.1 40-23.11h46.21l23.11-40 40-23.11V212.5l23.11-40-23.11-40V86.24zM156.91 243.07a16.79 16.79 0 01-23.34 0l-50.45-50.44a16.19 16.19 0 010-22.89l13.35-13.35a16.19 16.19 0 0122.89 0l25.87 25.87 80.34-80.35a16.19 16.19 0 0122.89 0l13.35 13.35a16.19 16.19 0 010 22.89z" data-name="Capa 1"/></g></symbol><symbol viewBox="0 0 18 18" id="time" xmlns="http://www.w3.org/2000/svg"><path d="M17.75 8.68A8.75 8.75 0 11.249 8.679a8.75 8.75 0 0117.501.001zm-1.484 0a7.267 7.267 0 00-14.532 0 7.267 7.267 0 0014.532 0z"/><path d="M12.417 11.154L9.632 9.14V4.306a.157.157 0 00-.156-.156h-.94a.157.157 0 00-.156.156v5.38c0 .05.023.097.064.126l3.23 2.356a.16.16 0 00.22-.034l.558-.761a.156.156 0 00-.035-.22z"/></symbol></svg>