<svg width="20" height="20" viewBox="0 0 20 20" fill="none" xmlns="http://www.w3.org/2000/svg">
<path d="M10 0C4.486 0 0 4.486 0 10C0 15.514 4.486 20 10 20C15.514 20 20 15.514 20 10C20 4.486 15.514 0 10 0ZM10 19.0909C4.98718 19.0909 0.909091 15.0127 0.909091 10C0.909091 4.98727 4.98718 0.909091 10 0.909091C15.0128 0.909091 19.0909 4.98727 19.0909 10C19.0909 15.0127 15.0128 19.0909 10 19.0909Z" fill="#478ECC"/>
<path d="M10.2273 2C5.69073 2 2 5.69073 2 10.2273C2 14.7638 5.69073 18.4545 10.2273 18.4545C14.7638 18.4545 18.4545 14.7638 18.4545 10.2273C18.4545 5.69073 14.7638 2 10.2273 2ZM10.2273 18.1818C5.84109 18.1818 2.27273 14.6135 2.27273 10.2273C2.27273 5.84109 5.84109 2.27273 10.2273 2.27273C14.6135 2.27273 18.1818 5.84109 18.1818 10.2273C18.1818 14.6135 14.6135 18.1818 10.2273 18.1818Z" fill="#478ECC"/>
<path d="M9 10.3874H10.5428L10.9303 10H9.38745L9 10.3874Z" fill="#478ECC"/>
<path d="M10.4188 13.7272C10.3889 13.7272 10.3594 13.7265 10.3295 13.7249C9.80622 13.6984 9.37931 13.385 9.18749 12.8865C9.03204 12.4828 9.03031 11.887 9.49122 11.4261L9.9174 11H8.43304C7.97459 11.6605 7.86922 12.4984 8.1694 13.2785C8.51549 14.1776 9.32204 14.7663 10.2737 14.8145C10.3217 14.8169 10.3701 14.8182 10.4188 14.8182C11.9728 14.8182 13.2369 13.5539 13.2369 12H12.146C12.146 12.9524 11.3712 13.7272 10.4188 13.7272Z" fill="#478ECC"/>
<path d="M9.81818 6.09091C9.848 6.09091 9.87755 6.09164 9.90746 6.09318C10.4307 6.11973 10.8576 6.43309 11.0495 6.93155C11.2049 7.33527 11.2066 7.93109 10.7457 8.392L10.3195 8.81818H11.8039C12.2624 8.15764 12.3678 7.31982 12.0675 6.53973C11.7215 5.64054 10.9149 5.05191 9.96327 5.00373C9.91518 5.00127 9.86682 5 9.81818 5C8.26418 5 7 6.26427 7 7.81818H8.09091C8.09091 6.86573 8.86573 6.09091 9.81818 6.09091Z" fill="#478ECC"/>
<path d="M12.1818 10H7V10.7154H12.1818V10Z" fill="#478ECC"/>
<path d="M12.1818 9H7V9.71536H12.1818V9Z" fill="#478ECC"/>
</svg>
