<?xml version="1.0" encoding="UTF-8"?>
<svg id="SVGDoc" width="26" height="26" xmlns="http://www.w3.org/2000/svg" version="1.1" xmlns:xlink="http://www.w3.org/1999/xlink" xmlns:avocode="https://avocode.com/" viewBox="0 0 26 26"><defs></defs><desc>Generated with Avocode.</desc><g><g><title>Vector</title><path d="M19.25,18.26h-12.5v-1.25l1.25,-1.25v-3.2625c0,-1.3625 0.3375,-2.5625 0.9875,-3.575c0.6375,-1.0125 1.5625,-1.65 2.7625,-1.9125v-0.625c0,-0.33152 0.1317,-0.64946 0.3661,-0.88388c0.2344,-0.23442 0.5524,-0.36612 0.8839,-0.36612c0.3315,0 0.6495,0.1317 0.8839,0.36612c0.2344,0.23442 0.3661,0.55236 0.3661,0.88388v0.625c1.2,0.2625 2.125,0.9 2.7625,1.9125c0.65,1.0125 0.9875,2.2125 0.9875,3.575v3.2625l1.25,1.25zM14.875,19.51c0,0.4973 -0.1975,0.9742 -0.5492,1.3258c-0.3516,0.3517 -0.8285,0.5492 -1.3258,0.5492c-0.4973,0 -0.9742,-0.1975 -1.3258,-0.5492c-0.3517,-0.3516 -0.5492,-0.8285 -0.5492,-1.3258zM13,0.76c1.6415,0 3.267,0.32332 4.7835,0.95151c1.5166,0.62818 2.8946,1.54892 4.0553,2.70966c1.1608,1.16073 2.0815,2.53872 2.7097,4.05529c0.6282,1.51657 0.9515,3.14204 0.9515,4.78354c0,3.3152 -1.317,6.4946 -3.6612,8.8388c-2.3442,2.3442 -5.5236,3.6612 -8.8388,3.6612c-1.6415,0 -3.26697,-0.3233 -4.78354,-0.9515c-1.51657,-0.6282 -2.89456,-1.5489 -4.05529,-2.7097c-2.34421,-2.3442 -3.66117,-5.5236 -3.66117,-8.8388c0,-3.31521 1.31696,-6.49463 3.66117,-8.83883c2.3442,-2.34421 5.52362,-3.66117 8.83883,-3.66117zM13,3.26c-2.65216,0 -5.1957,1.05357 -7.07107,2.92893c-1.87536,1.87537 -2.92893,4.4189 -2.92893,7.07107c0,2.6522 1.05357,5.1957 2.92893,7.0711c1.87537,1.8753 4.41891,2.9289 7.07107,2.9289c2.6522,0 5.1957,-1.0536 7.0711,-2.9289c1.8753,-1.8754 2.9289,-4.4189 2.9289,-7.0711c0,-2.65217 -1.0536,-5.1957 -2.9289,-7.07107c-1.8754,-1.87536 -4.4189,-2.92893 -7.0711,-2.92893z" fill="#15499f" fill-opacity="1"></path></g></g></svg>